<svg version="1.1" xmlns="http://www.w3.org/2000/svg"
    width="192pt" height="192pt" viewBox="0 0 192 192"
    preserveAspectRatio="xMidYMid meet">
    <g transform="translate(0,192) scale(0.1,-0.1)"
       stroke="none">
        <path d="M263 1906 c-118 -29 -221 -134 -249 -253 -20 -84 -20 -1302 0 -1386
        29 -122 131 -224 253 -253 84 -20 1302 -20 1386 0 122 29 224 131 253 253 20
        84 20 1302 0 1386 -29 122 -131 224 -253 253 -81 19 -1312 19 -1390 0z m706
        -753 c166 -265 298 -467 302 -460 7 14 11 35 89 436 34 172 60 329 58 349 -4
        46 -41 73 -107 80 -49 4 -51 5 -44 31 3 14 8 29 10 34 2 4 94 7 204 7 l201 0
        -7 -32 c-4 -18 -8 -33 -9 -34 0 0 -17 -5 -36 -10 -56 -16 -73 -53 -110 -241
        -18 -92 -52 -267 -75 -388 -24 -121 -60 -303 -79 -405 -20 -102 -38 -195 -41
        -207 -4 -19 -12 -23 -43 -23 l-37 0 -305 460 c-293 442 -305 459 -312 427 -24
        -104 -131 -670 -135 -712 -4 -41 -2 -53 13 -66 25 -22 79 -39 122 -39 31 0 34
        -2 28 -22 -3 -13 -6 -29 -6 -35 0 -10 -48 -13 -206 -13 l-206 0 6 23 c3 12 6
        28 6 35 0 6 7 12 15 12 27 0 62 22 78 50 10 16 31 100 47 187 17 87 44 226 60
        308 110 569 110 572 88 619 -6 14 -19 28 -30 31 -18 6 -26 54 -11 69 4 4 45 5
        92 4 l84 -3 296 -472z"/>
    </g>
</svg>
